<?xml version="1.0" encoding="utf-8" ?><svg xmlns="http://www.w3.org/2000/svg" xmlns:xlink="http://www.w3.org/1999/xlink" width="2000" height="2000" viewBox="0 0 2000 2000"><path fill="#212181" transform="scale(1.95312 1.95312)" d="M474.137 382.717C478.173 380.282 485.786 376.952 490.213 374.86L521.858 360.087C533.41 354.761 544.931 349.369 556.42 343.911C560.276 342.056 579.462 332.069 582.48 332.201L660.572 367.765C666.84 370.623 686.809 378.944 691.038 381.754L690.785 402.05C690.717 411.932 689.992 490.683 690.977 492.813L691.493 492.978C700.896 496.81 708.881 500.056 718.606 502.791C722.424 503.865 738.873 511.916 741.708 514.26C741.066 516.89 741.503 530.63 741.427 534.349C741.042 553.097 741.984 572.991 741.436 591.649L742.042 591.68C747.971 591.947 763.021 590.762 766.882 592.576C770.645 598.314 768.466 642.998 768.457 653.001C768.439 674.175 767.973 696.035 768.51 717.287C773.406 717.329 777.618 717.358 782.527 717.048C787.198 716.666 791.377 716.48 796.046 716.327C801.803 715.16 810.286 715.268 811.101 707.379L811.448 707.49C818.784 698.873 848.965 700.363 858.511 704.958L860.766 706.026C861.842 708.66 862.126 710.258 864.339 711.989C864.082 713.57 863.839 715.279 863.54 716.842C870.312 716.77 884.421 715.884 889.803 718.625L890.419 719.529C889.264 722.93 885.445 723.007 882.312 722.998L320.887 722.521L182.138 722.263C177.647 722.21 166.51 724.092 164.238 720.53C164.693 713.601 193.997 718.751 199.096 717.095C198.887 714.327 198.736 711.555 198.642 708.781C198.531 705.23 197.802 685.493 199.639 683.533C207.282 681.144 223.265 682.422 231.702 682.343C252.736 682.062 273.772 681.995 294.808 682.142L293.271 679.873C292.346 674.791 292.829 649.184 293.096 643.236C295.366 637.617 302.745 639.336 308.052 639.517C307.928 628.185 307.907 616.851 307.99 605.519C305.635 605.553 303.295 605.427 300.942 605.332C300.346 603.251 300.519 603.63 301.336 601.877C307.043 601.002 329.791 601.39 336.999 601.471C359.073 601.72 382.217 601.074 404.19 601.697L403.947 600.003C402.802 592.232 404.069 581.615 404.162 573.202C404.353 574.348 404.391 575.13 404.835 576.193L405.843 573.641C406.027 573.878 406.212 574.114 406.396 574.35C406.615 572.645 406.248 573.309 407.338 572.196C411.784 571.191 419.676 571.482 424.507 571.522C424.464 565.903 425.015 543.62 424.05 539.785L424.225 539.69C423.893 533.297 424.114 526.622 423.811 520.065C423.849 518.879 423.889 519.034 424.216 517.858C428.881 512.999 466.003 497.884 473.779 495.067C473.221 490.487 473.653 472.016 473.661 466.646L473.329 414.896C473.099 405.365 472.825 391.997 474.137 382.717ZM479.063 683.489C476.856 683.565 473.616 683.781 471.493 683.7L469.163 683.789C467.845 685.725 468.443 713.135 468.53 717.719C473.735 716.818 484.862 717.065 490.454 717.065L527.608 717.073L676.922 717.429C677.128 702.989 676.497 688.339 676.537 673.725C654.687 683.42 632.423 692.172 610.696 702.242C607.569 703.692 583.613 714.486 581.922 714.654C561.306 703.52 539.872 694.239 518.63 684.581C511.333 681.264 484.118 669.76 479.011 665.912C478.977 671.727 478.865 677.689 479.063 683.489ZM719.839 717.18C719.221 703.848 720.268 685.944 720.352 672.385C720.458 655.232 720.284 637.83 720.59 620.718C720.231 611.223 720.648 601.234 720.318 591.512C716.651 591.519 712.376 591.419 708.788 591.756C707.315 600.595 707.839 712.672 709.202 715.827C711.716 717.732 715.774 717.74 718.799 717.343C719.147 717.296 719.494 717.242 719.839 717.18ZM741.076 664.234C745.784 654.257 742.473 620.042 742.753 607.606C742.789 606.012 739.867 605.489 738.718 605.243C735.556 612.01 738.204 642.676 737.146 651.825C736.813 654.704 736.737 661.996 738.982 664.159C740.411 664.441 739.969 664.618 741.076 664.234Z"/><defs><linearGradient id="gradient_0" gradientUnits="userSpaceOnUse" x1="631.65344" y1="572.23743" x2="639.27692" y2="404.7601"><stop offset="0" stop-color="#150C58"/><stop offset="1" stop-color="#2550C6"/></linearGradient></defs><path fill="url(#gradient_0)" transform="scale(1.95312 1.95312)" d="M474.137 382.717C478.173 380.282 485.786 376.952 490.213 374.86L521.858 360.087C533.41 354.761 544.931 349.369 556.42 343.911C560.276 342.056 579.462 332.069 582.48 332.201L660.572 367.765C666.84 370.623 686.809 378.944 691.038 381.754L690.785 402.05C690.717 411.932 689.992 490.683 690.977 492.813L691.493 492.978C691.231 493.317 690.97 493.656 690.708 493.996C690.304 502.588 690.496 516.158 690.509 524.223L690.509 537.326L690.455 549.476C689.881 548.299 689.897 548.226 689.036 547.265C686.732 546.639 680.657 548.272 677.304 548.356C669.969 548.542 661.588 549.274 654.639 546.135C651.494 544.715 651.95 543.149 648.004 543.975L644.934 544.585C634.984 548.984 624.939 553.061 615.14 557.812C613.136 558.783 610.566 560.074 608.526 560.868C599.729 564.641 589.978 568.328 581.473 572.333C567.979 565.312 551.733 558.811 537.681 552.567C516.354 543.107 495.123 533.43 473.993 523.538C473.253 515.749 474.653 503.902 473.779 495.067C473.221 490.487 473.653 472.016 473.661 466.646L473.329 414.896C473.099 405.365 472.825 391.997 474.137 382.717Z"/><path fill="#F7AC74" transform="scale(1.95312 1.95312)" d="M474.137 382.717C478.173 380.282 485.786 376.952 490.213 374.86L521.858 360.087C533.41 354.761 544.931 349.369 556.42 343.911C560.276 342.056 579.462 332.069 582.48 332.201C581.665 338.688 582.005 350.153 581.8 357.307C581.11 381.475 581.704 405.868 581.424 430.052C581.916 440.585 581.645 450.38 581.7 460.862L581.744 525.538L581.943 553.611C581.991 559.052 582.258 567.074 581.473 572.333C567.979 565.312 551.733 558.811 537.681 552.567C516.354 543.107 495.123 533.43 473.993 523.538C473.253 515.749 474.653 503.902 473.779 495.067C473.221 490.487 473.653 472.016 473.661 466.646L473.329 414.896C473.099 405.365 472.825 391.997 474.137 382.717Z"/><path fill="#52E4F3" transform="scale(1.95312 1.95312)" d="M474.137 382.717C478.173 380.282 485.786 376.952 490.213 374.86L521.858 360.087C533.41 354.761 544.931 349.369 556.42 343.911C560.276 342.056 579.462 332.069 582.48 332.201C581.665 338.688 582.005 350.153 581.8 357.307C581.11 381.475 581.704 405.868 581.424 430.052L573.215 426.537C566.816 429.899 565.6 433.992 555.768 432.455C539.496 429.91 522.573 427.555 506.706 423.119C502.529 421.951 495.319 416.031 489.163 416.041C482.264 415.345 481.641 412.753 473.329 414.896C473.099 405.365 472.825 391.997 474.137 382.717Z"/><path fill="#FCC187" transform="scale(1.95312 1.95312)" d="M474.137 382.717L543.646 413.879C552.779 417.921 564.546 422.378 573.215 426.537C566.816 429.899 565.6 433.992 555.768 432.455C539.496 429.91 522.573 427.555 506.706 423.119C502.529 421.951 495.319 416.031 489.163 416.041C482.264 415.345 481.641 412.753 473.329 414.896C473.099 405.365 472.825 391.997 474.137 382.717Z"/><path fill="#15D1F4" transform="scale(1.95312 1.95312)" d="M582.48 332.201L660.572 367.765C666.84 370.623 686.809 378.944 691.038 381.754C674.118 389.492 657.098 397.008 639.982 404.3C627.461 409.688 614.971 415.146 602.512 420.675C596.897 423.188 586.913 428.087 581.424 430.052C581.704 405.868 581.11 381.475 581.8 357.307C582.005 350.153 581.665 338.688 582.48 332.201Z"/><path fill="#2D48A6" transform="scale(1.95312 1.95312)" d="M691.038 381.754L690.785 402.05L689.979 402.368C689.478 405.077 690.067 408.666 689.183 410.011C685.638 408.341 683.274 406.956 679.365 406.643C670.749 405.954 661.849 405.933 653.207 405.696C649.961 405.607 641.827 406.566 639.387 406.144L639.982 404.3C657.098 397.008 674.118 389.492 691.038 381.754Z"/><path fill="#61A7D8" transform="scale(1.95312 1.95312)" d="M690.509 524.223L690.509 537.326L690.455 549.476C689.881 548.299 689.897 548.226 689.036 547.265C686.732 546.639 680.657 548.272 677.304 548.356C669.969 548.542 661.588 549.274 654.639 546.135C651.494 544.715 651.95 543.149 648.004 543.975L644.934 544.585C657.962 537.952 676.769 530.286 690.509 524.223Z"/><path fill="#61A7D8" transform="scale(1.95312 1.95312)" d="M473.993 523.538C495.123 533.43 516.354 543.107 537.681 552.567C551.733 558.811 567.979 565.312 581.473 572.333C589.978 568.328 599.729 564.641 608.526 560.868C610.566 560.074 613.136 558.783 615.14 557.812C624.939 553.061 634.984 548.984 644.934 544.585L648.004 543.975C651.95 543.149 651.494 544.715 654.639 546.135C661.588 549.274 669.969 548.542 677.304 548.356C680.657 548.272 686.732 546.639 689.036 547.265C689.897 548.226 689.881 548.299 690.455 549.476C690.459 551.405 690.575 554.877 690.411 556.676C690.559 567.289 690.806 580.392 690.318 590.97C686.1 591.202 681.744 591.38 677.552 591.793L677.613 602.746C677.581 612.937 677.836 625.069 677.395 635.034C677.477 645.194 677.463 655.354 677.352 665.514C677.002 668.106 676.923 671.422 676.537 673.725C654.687 683.42 632.423 692.172 610.696 702.242C607.569 703.692 583.613 714.486 581.922 714.654C561.306 703.52 539.872 694.239 518.63 684.581C511.333 681.264 484.118 669.76 479.011 665.912C479.156 660.445 479.687 654.768 479.567 649.321C479.497 646.155 479.71 644.946 477.51 642.848L478.157 640.096C478.738 635.941 478.581 629.524 478.581 625.232C478.333 619.071 478.961 612.576 478.479 606.611C477.297 605.678 476.738 605.994 474.876 605.893L473.029 605.805C472.98 587.621 473.034 569.437 473.192 551.254C473.813 544.917 473.327 526.708 473.993 523.538Z"/><defs><linearGradient id="gradient_1" gradientUnits="userSpaceOnUse" x1="635.59882" y1="624.67413" x2="635.80597" y2="562.09039"><stop offset="0" stop-color="#1C52A4"/><stop offset="1" stop-color="#1A8BE9"/></linearGradient></defs><path fill="url(#gradient_1)" transform="scale(1.95312 1.95312)" d="M644.934 544.585L648.004 543.975C651.95 543.149 651.494 544.715 654.639 546.135C661.588 549.274 669.969 548.542 677.304 548.356C680.657 548.272 686.732 546.639 689.036 547.265C689.897 548.226 689.881 548.299 690.455 549.476C690.459 551.405 690.575 554.877 690.411 556.676C690.559 567.289 690.806 580.392 690.318 590.97C686.1 591.202 681.744 591.38 677.552 591.793L677.613 602.746C677.581 612.937 677.836 625.069 677.395 635.034C677.477 645.194 677.463 655.354 677.352 665.514C677.002 668.106 676.923 671.422 676.537 673.725C654.687 683.42 632.423 692.172 610.696 702.242C607.569 703.692 583.613 714.486 581.922 714.654C582.173 705.426 581.781 695.509 581.714 686.21L581.468 638.61L581.214 624.979C580.939 617.976 581.417 610.875 581.458 603.843C581.519 593.339 581.499 582.838 581.473 572.333C589.978 568.328 599.729 564.641 608.526 560.868C610.566 560.074 613.136 558.783 615.14 557.812C624.939 553.061 634.984 548.984 644.934 544.585Z"/><defs><linearGradient id="gradient_2" gradientUnits="userSpaceOnUse" x1="629.25818" y1="712.99542" x2="629.24939" y2="623.99561"><stop offset="0" stop-color="#210245"/><stop offset="1" stop-color="#1C53A5"/></linearGradient></defs><path fill="url(#gradient_2)" transform="scale(1.95312 1.95312)" d="M676.755 624.854C676.729 628.397 676.538 631.325 677.339 634.779L677.395 635.034C677.477 645.194 677.463 655.354 677.352 665.514C677.002 668.106 676.923 671.422 676.537 673.725C654.687 683.42 632.423 692.172 610.696 702.242C607.569 703.692 583.613 714.486 581.922 714.654C582.173 705.426 581.781 695.509 581.714 686.21L581.468 638.61L581.214 624.979C583.848 623.98 669.888 623.93 676.755 624.854Z"/><path fill="#1990EF" transform="scale(1.95312 1.95312)" d="M644.934 544.585L648.004 543.975C651.95 543.149 651.494 544.715 654.639 546.135C661.588 549.274 669.969 548.542 677.304 548.356C680.657 548.272 686.732 546.639 689.036 547.265C689.897 548.226 689.881 548.299 690.455 549.476C690.459 551.405 690.575 554.877 690.411 556.676C689.578 559.537 689.661 562.002 689.22 564.926C687.743 565.07 687.276 564.988 685.769 564.481C682.827 563.49 678.761 564.528 675.978 564.242C670.516 563.679 660.43 563.914 655.798 563.698C650.015 563.428 612.714 564.639 609.336 563.375C609.062 562.541 608.792 561.705 608.526 560.868C610.566 560.074 613.136 558.783 615.14 557.812C624.939 553.061 634.984 548.984 644.934 544.585Z"/><defs><linearGradient id="gradient_3" gradientUnits="userSpaceOnUse" x1="531.20306" y1="713.65558" x2="529.43768" y2="638.34137"><stop offset="0" stop-color="#3C3664"/><stop offset="1" stop-color="#6468A4"/></linearGradient></defs><path fill="url(#gradient_3)" transform="scale(1.95312 1.95312)" d="M478.581 625.232C479.646 631.841 478.248 634.77 480.305 641.674C482.042 640.946 484.398 639.941 486.24 639.773C503.621 638.188 521.426 638.39 538.853 637.608C552.323 637.004 565.829 638.89 579.259 639.547C580.258 639.604 580.89 639.365 581.468 638.61L581.714 686.21C581.781 695.509 582.173 705.426 581.922 714.654C561.306 703.52 539.872 694.239 518.63 684.581C511.333 681.264 484.118 669.76 479.011 665.912C479.156 660.445 479.687 654.768 479.567 649.321C479.497 646.155 479.71 644.946 477.51 642.848L478.157 640.096C478.738 635.941 478.581 629.524 478.581 625.232Z"/><path fill="#FCC187" transform="scale(1.95312 1.95312)" d="M473.779 495.067C474.653 503.902 473.253 515.749 473.993 523.538C473.327 526.708 473.813 544.917 473.192 551.254C473.034 569.437 472.98 587.621 473.029 605.805L474.876 605.893C476.738 605.994 477.297 605.678 478.479 606.611C478.961 612.576 478.333 619.071 478.581 625.232C478.581 629.524 478.738 635.941 478.157 640.096L477.51 642.848C476.405 643.238 475.751 643.491 474.598 643.767C457.937 642.693 432.415 643.596 415.383 643.992L398.016 644.023L395.023 643.823C386.051 644.536 369.951 644.02 360.478 644.015L294.214 643.898L293.096 643.236C295.366 637.617 302.745 639.336 308.052 639.517C307.928 628.185 307.907 616.851 307.99 605.519C305.635 605.553 303.295 605.427 300.942 605.332C300.346 603.251 300.519 603.63 301.336 601.877C307.043 601.002 329.791 601.39 336.999 601.471C359.073 601.72 382.217 601.074 404.19 601.697L403.947 600.003C402.802 592.232 404.069 581.615 404.162 573.202C404.353 574.348 404.391 575.13 404.835 576.193L405.843 573.641C406.027 573.878 406.212 574.114 406.396 574.35C406.615 572.645 406.248 573.309 407.338 572.196C411.784 571.191 419.676 571.482 424.507 571.522C424.464 565.903 425.015 543.62 424.05 539.785L424.225 539.69C423.893 533.297 424.114 526.622 423.811 520.065C423.849 518.879 423.889 519.034 424.216 517.858C428.881 512.999 466.003 497.884 473.779 495.067Z"/><path fill="#2D48A6" transform="scale(1.95312 1.95312)" d="M473.779 495.067C474.653 503.902 473.253 515.749 473.993 523.538C473.327 526.708 473.813 544.917 473.192 551.254C473.034 569.437 472.98 587.621 473.029 605.805C462.813 606.28 443.666 606.47 433.674 605.698C436.677 600.588 436.107 584.434 435.016 578.72C434.862 577.036 435.096 575.529 435.25 573.841L434.812 572.665C432.343 570.832 427.72 571.45 424.507 571.522C424.464 565.903 425.015 543.62 424.05 539.785L424.225 539.69C423.893 533.297 424.114 526.622 423.811 520.065C423.849 518.879 423.889 519.034 424.216 517.858C428.881 512.999 466.003 497.884 473.779 495.067Z"/><defs><linearGradient id="gradient_4" gradientUnits="userSpaceOnUse" x1="467.97318" y1="494.12552" x2="447.91202" y2="532.37097"><stop offset="0" stop-color="#656EBB"/><stop offset="1" stop-color="#7192D5"/></linearGradient></defs><path fill="url(#gradient_4)" transform="scale(1.95312 1.95312)" d="M473.779 495.067C474.653 503.902 473.253 515.749 473.993 523.538C473.327 526.708 473.813 544.917 473.192 551.254C473.208 550.554 473.338 545.872 472.845 545.553C458.114 535.995 437.981 530.158 423.811 520.065C423.849 518.879 423.889 519.034 424.216 517.858C428.881 512.999 466.003 497.884 473.779 495.067Z"/><path fill="#212181" transform="scale(1.95312 1.95312)" d="M424.05 539.785L424.225 539.69C429.521 539.35 433.163 539.654 438.402 540.531C439.159 545.153 439.768 567.398 438.294 571.116C437.101 572.017 436.119 572.623 435.25 573.841L434.812 572.665C432.343 570.832 427.72 571.45 424.507 571.522C424.464 565.903 425.015 543.62 424.05 539.785Z"/><path fill="#ED6339" transform="scale(1.95312 1.95312)" d="M433.674 605.698C443.666 606.47 462.813 606.28 473.029 605.805L474.876 605.893C476.738 605.994 477.297 605.678 478.479 606.611C478.961 612.576 478.333 619.071 478.581 625.232C478.581 629.524 478.738 635.941 478.157 640.096L475.366 640.017C455.866 639.487 435.918 639.682 416.328 639.477C417.501 635.119 416.981 611.327 416.967 605.753C411.989 605.951 406.553 605.834 401.539 605.825L401.623 605.627C410.979 605.785 424.967 605.023 433.674 605.698Z"/><path fill="#D3331A" transform="scale(1.95312 1.95312)" d="M474.876 605.893C476.738 605.994 477.297 605.678 478.479 606.611C478.961 612.576 478.333 619.071 478.581 625.232C478.581 629.524 478.738 635.941 478.157 640.096L475.366 640.017C476.117 632.252 475.199 614.184 474.876 605.893Z"/><path fill="#212181" transform="scale(1.95312 1.95312)" d="M393.723 605.656C396.546 605.554 398.792 605.54 401.623 605.627L401.539 605.825C406.553 605.834 411.989 605.951 416.967 605.753C416.981 611.327 417.501 635.119 416.328 639.477C435.918 639.682 455.866 639.487 475.366 640.017L478.157 640.096L477.51 642.848C476.405 643.238 475.751 643.491 474.598 643.767C457.937 642.693 432.415 643.596 415.383 643.992L398.016 644.023L395.023 643.823C386.051 644.536 369.951 644.02 360.478 644.015L294.214 643.898L293.096 643.236C295.366 637.617 302.745 639.336 308.052 639.517L310.612 639.393C338.009 639.455 367.191 638.683 394.353 639.477C393.782 636.408 394.042 630.42 394.054 627.164C394.079 619.947 394.303 612.875 393.723 605.656Z"/><path fill="#F7AC74" transform="scale(1.95312 1.95312)" d="M396.336 639.487C397.234 630.842 395.461 615.017 396.705 606.384C397.898 605.659 400.026 605.841 401.539 605.825C406.553 605.834 411.989 605.951 416.967 605.753C416.981 611.327 417.501 635.119 416.328 639.477L396.336 639.487Z"/><path fill="#15D1F4" transform="scale(1.95312 1.95312)" d="M424.507 571.522C427.72 571.45 432.343 570.832 434.812 572.665L435.25 573.841C435.096 575.529 434.862 577.036 435.016 578.72C434.558 586.965 435.03 593.952 434.842 601.928C426.896 601.821 414.593 602.04 407.038 601.471L404.19 601.697L403.947 600.003C402.802 592.232 404.069 581.615 404.162 573.202C404.353 574.348 404.391 575.13 404.835 576.193L405.843 573.641C406.027 573.878 406.212 574.114 406.396 574.35C406.615 572.645 406.248 573.309 407.338 572.196C411.784 571.191 419.676 571.482 424.507 571.522Z"/><path fill="#2D48A6" transform="scale(1.95312 1.95312)" d="M404.162 573.202C404.353 574.348 404.391 575.13 404.835 576.193L405.843 573.641C406.027 573.878 406.212 574.114 406.396 574.35C406.503 583.227 406.461 592.657 407.038 601.471L404.19 601.697L403.947 600.003C402.802 592.232 404.069 581.615 404.162 573.202Z"/><path fill="#212181" transform="scale(1.95312 1.95312)" d="M435.016 578.72C436.107 584.434 436.677 600.588 433.674 605.698C424.967 605.023 410.979 605.785 401.623 605.627C398.792 605.54 396.546 605.554 393.723 605.656C388.403 605.505 383.043 605.853 377.699 605.86L339.019 605.882C329.554 605.95 319.813 605.35 310.392 605.695C310.666 616.993 310.334 628.288 310.612 639.393L308.052 639.517C307.928 628.185 307.907 616.851 307.99 605.519C305.635 605.553 303.295 605.427 300.942 605.332C300.346 603.251 300.519 603.63 301.336 601.877C307.043 601.002 329.791 601.39 336.999 601.471C359.073 601.72 382.217 601.074 404.19 601.697L407.038 601.471C414.593 602.04 426.896 601.821 434.842 601.928C435.03 593.952 434.558 586.965 435.016 578.72Z"/><path fill="#D763EA" transform="scale(1.95312 1.95312)" d="M477.51 642.848C479.71 644.946 479.497 646.155 479.567 649.321C479.687 654.768 479.156 660.445 479.011 665.912C478.977 671.727 478.865 677.689 479.063 683.489C476.856 683.565 473.616 683.781 471.493 683.7L469.163 683.789C467.845 685.725 468.443 713.135 468.53 717.719C462.393 718.732 452.946 718.224 446.51 718.119C433.652 718.008 420.794 717.973 407.936 718.012C402.771 718.015 390.64 717.769 386.03 718.472C384.085 718.515 379.31 717.858 377.231 717.597C379.554 717.614 380.5 717.769 382.662 717.072C383.407 714.296 383.037 688.454 383.021 684.019C366.279 683.311 347.317 684.442 330.412 683.847C320.497 683.498 303.809 685.184 294.808 682.142L293.271 679.873C292.346 674.791 292.829 649.184 293.096 643.236L294.214 643.898L360.478 644.015C369.951 644.02 386.051 644.536 395.023 643.823L398.016 644.023L415.383 643.992C432.415 643.596 457.937 642.693 474.598 643.767C475.751 643.491 476.405 643.238 477.51 642.848Z"/><path fill="#7D23D4" transform="scale(1.95312 1.95312)" d="M385.957 683.978C404.999 683.931 423.921 683.443 443.005 684.006C452.802 684.295 462.07 684.597 471.512 681.823L471.493 683.7L469.163 683.789C467.845 685.725 468.443 713.135 468.53 717.719C462.393 718.732 452.946 718.224 446.51 718.119C433.652 718.008 420.794 717.973 407.936 718.012C402.771 718.015 390.64 717.769 386.03 718.472C385.299 706.586 385.68 695.861 385.957 683.978Z"/><path fill="#BB2E98" transform="scale(1.95312 1.95312)" d="M477.51 642.848C479.71 644.946 479.497 646.155 479.567 649.321C479.687 654.768 479.156 660.445 479.011 665.912C478.977 671.727 478.865 677.689 479.063 683.489C476.856 683.565 473.616 683.781 471.493 683.7L471.512 681.823C473.465 681.428 472.628 681.847 474.114 680.51C468.584 678.857 426.532 679.641 418.166 679.637L417.504 679.001C417.669 674.733 417.256 667.639 417.246 662.983C417.236 658.797 417.797 648.114 417.411 644.661L415.383 643.992C432.415 643.596 457.937 642.693 474.598 643.767C475.751 643.491 476.405 643.238 477.51 642.848Z"/><path fill="#AD186F" transform="scale(1.95312 1.95312)" d="M477.51 642.848C479.71 644.946 479.497 646.155 479.567 649.321C479.687 654.768 479.156 660.445 479.011 665.912C478.977 671.727 478.865 677.689 479.063 683.489C476.856 683.565 473.616 683.781 471.493 683.7L471.512 681.823C473.465 681.428 472.628 681.847 474.114 680.51C475.047 670.637 474.586 654.044 474.598 643.767C475.751 643.491 476.405 643.238 477.51 642.848Z"/><path fill="#212181" transform="scale(1.95312 1.95312)" d="M395.023 643.823L398.016 644.023L415.383 643.992L417.411 644.661C417.797 648.114 417.236 658.797 417.246 662.983C417.256 667.639 417.669 674.733 417.504 679.001L418.166 679.637C426.532 679.641 468.584 678.857 474.114 680.51C472.628 681.847 473.465 681.428 471.512 681.823C462.07 684.597 452.802 684.295 443.005 684.006C423.921 683.443 404.999 683.931 385.957 683.978C385.68 695.861 385.299 706.586 386.03 718.472C384.085 718.515 379.31 717.858 377.231 717.597C379.554 717.614 380.5 717.769 382.662 717.072C383.407 714.296 383.037 688.454 383.021 684.019C366.279 683.311 347.317 684.442 330.412 683.847C320.497 683.498 303.809 685.184 294.808 682.142L293.271 679.873L294.506 679.495C327.901 679.906 361.724 678.96 395.02 679.611L395.023 643.823Z"/><defs><linearGradient id="gradient_5" gradientUnits="userSpaceOnUse" x1="417.28116" y1="661.74707" x2="398.22464" y2="661.41742"><stop offset="0" stop-color="#C62D9F"/><stop offset="1" stop-color="#D968DB"/></linearGradient></defs><path fill="url(#gradient_5)" transform="scale(1.95312 1.95312)" d="M398.016 644.023L415.383 643.992L417.411 644.661C417.797 648.114 417.236 658.797 417.246 662.983C417.256 667.639 417.669 674.733 417.504 679.001L418.166 679.637L397.995 679.574L398.016 644.023Z"/><path fill="#8850E9" transform="scale(1.95312 1.95312)" d="M293.096 643.236L294.214 643.898C294.069 649.163 294.035 656.31 294.396 661.479C294.616 664.62 293.653 678.017 294.506 679.495L293.271 679.873C292.346 674.791 292.829 649.184 293.096 643.236Z"/><path fill="#D763EA" transform="scale(1.95312 1.95312)" d="M294.808 682.142C303.809 685.184 320.497 683.498 330.412 683.847C347.317 684.442 366.279 683.311 383.021 684.019C383.037 688.454 383.407 714.296 382.662 717.072C380.5 717.769 379.554 717.614 377.231 717.597C363.268 716.925 343.689 717.543 329.366 717.544L235.498 717.506C230.922 717.504 201.34 717.905 199.096 717.095C198.887 714.327 198.736 711.555 198.642 708.781C198.531 705.23 197.802 685.493 199.639 683.533C207.282 681.144 223.265 682.422 231.702 682.343C252.736 682.062 273.772 681.995 294.808 682.142Z"/><defs><linearGradient id="gradient_6" gradientUnits="userSpaceOnUse" x1="755.59985" y1="718.07251" x2="731.48462" y2="591.24237"><stop offset="0" stop-color="#E4573B"/><stop offset="1" stop-color="#FFC06A"/></linearGradient></defs><path fill="url(#gradient_6)" transform="scale(1.95312 1.95312)" d="M738.824 591.602L741.436 591.649L742.042 591.68C747.971 591.947 763.021 590.762 766.882 592.576C770.645 598.314 768.466 642.998 768.457 653.001C768.439 674.175 767.973 696.035 768.51 717.287C755.589 716.307 733.141 717.05 719.839 717.18C719.221 703.848 720.268 685.944 720.352 672.385C720.458 655.232 720.284 637.83 720.59 620.718C720.231 611.223 720.648 601.234 720.318 591.512C726.077 591.511 733.179 591.333 738.824 591.602ZM741.076 664.234C745.784 654.257 742.473 620.042 742.753 607.606C742.789 606.012 739.867 605.489 738.718 605.243C735.556 612.01 738.204 642.676 737.146 651.825C736.813 654.704 736.737 661.996 738.982 664.159C740.411 664.441 739.969 664.618 741.076 664.234Z"/><path fill="#FCC187" transform="scale(1.95312 1.95312)" d="M720.318 591.512C726.077 591.511 733.179 591.333 738.824 591.602C734.684 592.934 731.405 591.525 727.848 592.374L729.167 592.569C730.037 596.31 722.867 596.467 722.649 597.037C720.329 603.114 721.516 614.516 720.59 620.718C720.231 611.223 720.648 601.234 720.318 591.512Z"/><path fill="#FCC187" transform="scale(1.95312 1.95312)" d="M690.318 590.97C698.24 591.475 696.942 595.563 697.198 602.351C697.753 619.94 696.994 641.908 697.008 660.045C693.093 659.049 689.261 661.894 685.511 662.444C682.616 662.868 679.378 664.977 677.352 665.514C677.463 655.354 677.477 645.194 677.395 635.034C677.836 625.069 677.581 612.937 677.613 602.746L677.552 591.793C681.744 591.38 686.1 591.202 690.318 590.97Z"/><path fill="#FFE18B" transform="scale(1.95312 1.95312)" d="M690.318 590.97C698.24 591.475 696.942 595.563 697.198 602.351L696.679 604.979C695.459 600.831 697.299 595.038 694.431 592.499C691.578 591.627 685.428 591.922 682.229 592.076L682.002 592.481L682.603 593.496C681.274 596.211 679.161 596.224 678.833 598.981C678.297 603.478 679.141 609.187 678.383 613.507C678.097 609.922 677.841 606.335 677.613 602.746L677.552 591.793C681.744 591.38 686.1 591.202 690.318 590.97Z"/><path fill="#2D48A6" transform="scale(1.95312 1.95312)" d="M691.493 492.978C700.896 496.81 708.881 500.056 718.606 502.791C722.424 503.865 738.873 511.916 741.708 514.26C740.101 516.576 695.189 536.149 690.509 537.326L690.509 524.223C690.496 516.158 690.304 502.588 690.708 493.996C690.97 493.656 691.231 493.317 691.493 492.978Z"/><path fill="#ED6339" transform="scale(1.95312 1.95312)" d="M677.352 665.514C679.378 664.977 682.616 662.868 685.511 662.444C689.261 661.894 693.093 659.049 697.008 660.045C697.003 670.25 698.481 709.882 695.491 715.931C692.22 718.663 681.484 717.585 676.922 717.429C677.128 702.989 676.497 688.339 676.537 673.725C676.923 671.422 677.002 668.106 677.352 665.514Z"/><path fill="#2D48A6" transform="scale(1.95312 1.95312)" d="M811.101 707.379L811.448 707.49L811.513 716.507C806.854 716.469 800.58 716.582 796.046 716.327C801.803 715.16 810.286 715.268 811.101 707.379Z"/><defs><linearGradient id="gradient_7" gradientUnits="userSpaceOnUse" x1="428.76877" y1="383.03745" x2="331.93756" y2="293.61484"><stop offset="0" stop-color="#3C21BF"/><stop offset="1" stop-color="#7F58E1"/></linearGradient></defs><path fill="url(#gradient_7)" transform="scale(1.95312 1.95312)" d="M440.201 237.953L440.616 238.026C442.084 240.481 441.073 358.209 441.158 372.497L381.955 405.061C361.466 416.158 340.873 426.781 320.693 438.407C320.022 438.556 320.421 438.544 319.515 438.203C319.098 435.856 319.231 428.178 319.228 425.383L319.223 400.905L319.516 305.405C327.815 299.311 351.432 287.173 361.134 281.793C387.374 266.972 413.73 252.358 440.201 237.953Z"/><defs><linearGradient id="gradient_8" gradientUnits="userSpaceOnUse" x1="341.23523" y1="266.90814" x2="303.37018" y2="202.41983"><stop offset="0" stop-color="#8E57E6"/><stop offset="1" stop-color="#E383EB"/></linearGradient></defs><path fill="url(#gradient_8)" transform="scale(1.95312 1.95312)" d="M197.77 232.587L317.013 164.357C327.267 170.795 346.223 181.086 357.061 186.853C370.158 194.235 383.291 201.551 396.461 208.801C403.539 212.701 413.862 218.053 420.581 222.245C425.767 224.818 433.806 229.21 438.781 232.213C430.021 236.154 420.429 241.733 412.086 246.571C380.461 264.911 347.682 281.607 316.069 299.892C312.922 298.098 308.764 295.883 305.944 293.786C304.333 293.322 287.075 283.438 284.595 282.043L225.784 248.943C216.972 244.315 206.289 237.742 197.77 232.587Z"/><path fill="#D763EA" transform="scale(1.95312 1.95312)" d="M197.77 232.587L317.013 164.357C327.267 170.795 346.223 181.086 357.061 186.853C349.502 195.447 328.871 199.849 318.353 204.771C300.343 213.302 282.483 221.256 263.73 228.049C259.061 229.741 251.718 234.29 247.045 236.686C242.639 238.945 227.648 244.975 225.784 248.943C216.972 244.315 206.289 237.742 197.77 232.587Z"/><path fill="#8850E9" transform="scale(1.95312 1.95312)" d="M305.944 293.786C305.533 292.206 304.046 291.916 302.16 290.666L302.273 290.641L301.37 290.168C302.418 289.439 307.232 287.057 308.646 286.297C313.172 283.81 317.664 281.261 322.12 278.65L381.221 243.938C391.057 238.165 400.897 232.34 410.762 226.626C413.994 224.754 413.832 222.499 416.081 221.766C417.888 222.338 418.089 222.283 420.047 222.257L420.581 222.245C425.767 224.818 433.806 229.21 438.781 232.213C430.021 236.154 420.429 241.733 412.086 246.571C380.461 264.911 347.682 281.607 316.069 299.892C312.922 298.098 308.764 295.883 305.944 293.786Z"/><defs><linearGradient id="gradient_9" gradientUnits="userSpaceOnUse" x1="305.51984" y1="393.9682" x2="252.05994" y2="335.19467"><stop offset="0" stop-color="#452EC6"/><stop offset="1" stop-color="#8F56DD"/></linearGradient></defs><path fill="url(#gradient_9)" transform="scale(1.95312 1.95312)" d="M193.845 238.282C205.901 243.6 219.341 252.375 231.118 258.997C233.682 260.763 236.652 262.382 239.404 263.869C259.095 274.503 278.302 286.088 297.835 296.971C302.949 299.668 308.007 302.471 313.006 305.377L313.054 370.119C313.07 379.267 313.642 393.811 313.081 402.306C313.993 413.178 313.258 428.475 313.5 439.771C304.696 434.907 287.264 425.987 279.351 420.831C269.876 416.043 258.725 409.514 249.284 404.321C234.23 396.148 219.25 387.839 204.347 379.394C200.752 377.517 197.452 375.317 194.049 373.125C193.88 368.433 193.922 363.552 193.964 358.852C194.216 330.431 193.368 301.89 193.813 273.485C193.899 261.751 193.909 250.016 193.845 238.282Z"/><defs><linearGradient id="gradient_10" gradientUnits="userSpaceOnUse" x1="249.27847" y1="339.18533" x2="191.6629" y2="276.09073"><stop offset="0" stop-color="#8E56DD"/><stop offset="1" stop-color="#DA80F9"/></linearGradient></defs><path fill="url(#gradient_10)" transform="scale(1.95312 1.95312)" d="M193.845 238.282C205.901 243.6 219.341 252.375 231.118 258.997C233.682 260.763 236.652 262.382 239.404 263.869C259.095 274.503 278.302 286.088 297.835 296.971C297.111 297.052 294.866 297.234 294.396 297.731C288.127 304.369 280.95 310.163 274.175 316.297L222.704 362.803C218.709 366.434 215.238 370.052 211.497 373.897C209.186 376.273 206.966 375.578 204.347 379.394C200.752 377.517 197.452 375.317 194.049 373.125C193.88 368.433 193.922 363.552 193.964 358.852C194.216 330.431 193.368 301.89 193.813 273.485C193.899 261.751 193.909 250.016 193.845 238.282Z"/><path fill="#D763EA" transform="scale(1.95312 1.95312)" d="M193.845 238.282C205.901 243.6 219.341 252.375 231.118 258.997C222.784 261.709 214.307 263.38 206.087 266.773C202.109 268.416 197.28 272.22 193.813 273.485C193.899 261.751 193.909 250.016 193.845 238.282Z"/><path fill="#212181" transform="scale(1.95312 1.95312)" d="M279.351 420.831C278.903 419.418 278.953 419.948 279.021 418.478C283.831 410.441 303.412 392.454 310.897 387.428L312.061 387.856C313.235 391.173 311.605 397.757 313.081 402.306C313.993 413.178 313.258 428.475 313.5 439.771C304.696 434.907 287.264 425.987 279.351 420.831Z"/><path fill="#2D48A6" transform="scale(1.95312 1.95312)" d="M822.259 592.113C832.942 591.73 853.484 590.742 863.241 592.506C865.386 603.931 864.593 620.853 864.493 632.834L864.488 674.21C864.438 683.852 865.112 703.481 864.339 711.989C862.126 710.258 861.842 708.66 860.766 706.026L858.511 704.958C848.965 700.363 818.784 698.873 811.448 707.49L811.101 707.379C810.286 715.268 801.803 715.16 796.046 716.327C791.377 716.48 787.198 716.666 782.527 717.048L782.231 631.604C782.232 619.79 781.785 603.693 782.431 592.138C793.623 591.44 810.799 592.011 822.259 592.113ZM837.268 634.144C839.86 627.221 840.535 615.373 837.694 608.315C837.045 606.702 835.96 606.492 834.524 605.824C831.688 610.115 830.714 630.403 834.704 633.542C835.646 633.796 836.314 634.026 837.268 634.144ZM837.144 664.405C840.432 660.118 841.336 639.144 834.489 637.67C831.85 643.574 828.81 662.185 837.144 664.405Z"/><path fill="#4A71D6" transform="scale(1.95312 1.95312)" d="M782.431 592.138C793.623 591.44 810.799 592.011 822.259 592.113C818.678 592.37 815.577 592.254 812.646 594.363C809.766 598.884 812.345 669.352 811.361 680.171C810.972 684.447 810.85 702.08 811.101 707.379C810.286 715.268 801.803 715.16 796.046 716.327C791.377 716.48 787.198 716.666 782.527 717.048L782.231 631.604C782.232 619.79 781.785 603.693 782.431 592.138Z"/><defs><linearGradient id="gradient_11" gradientUnits="userSpaceOnUse" x1="221.9079" y1="657.75708" x2="219.74045" y2="588.7854"><stop offset="0" stop-color="#594EDB"/><stop offset="1" stop-color="#67D3F3"/></linearGradient></defs><path fill="url(#gradient_11)" transform="scale(1.95312 1.95312)" d="M210.835 567.191C230.455 548.586 261.235 550.075 281.554 566.81C289.65 575.18 296.606 583.976 298.14 595.842C298.576 599.213 298.27 601.304 301.336 601.877C300.519 603.63 300.346 603.251 300.942 605.332L299.78 605.72C298.232 614.541 299.354 617.223 295.806 626.478C287.795 647.368 269.006 659.05 246.787 658.357C246.577 658.313 246.368 658.269 246.158 658.225C241.74 658.013 237.365 657.267 233.127 656.002C219.021 651.7 207.199 641.975 200.257 628.964C193.825 616.595 192.51 602.195 196.594 588.866C199.138 580.617 204.448 572.938 210.835 567.191Z"/><defs><linearGradient id="gradient_12" gradientUnits="userSpaceOnUse" x1="276.13333" y1="654.43591" x2="266.15625" y2="570.25934"><stop offset="0" stop-color="#271CA8"/><stop offset="1" stop-color="#1752C8"/></linearGradient></defs><path fill="url(#gradient_12)" transform="scale(1.95312 1.95312)" d="M281.554 566.81C289.65 575.18 296.606 583.976 298.14 595.842C298.576 599.213 298.27 601.304 301.336 601.877C300.519 603.63 300.346 603.251 300.942 605.332L299.78 605.72C298.232 614.541 299.354 617.223 295.806 626.478C287.795 647.368 269.006 659.05 246.787 658.357C246.577 658.313 246.368 658.269 246.158 658.225L247.098 657.708L246.847 600.948C256.236 590.857 271.497 575.969 281.554 566.81Z"/><path fill="#15D1F4" transform="scale(1.95312 1.95312)" d="M210.835 567.191C230.455 548.586 261.235 550.075 281.554 566.81C271.497 575.969 256.236 590.857 246.847 600.948C242.738 596.746 239.349 593.267 234.941 589.357C227.116 581.743 219.077 574.352 210.835 567.191Z"/><defs><linearGradient id="gradient_13" gradientUnits="userSpaceOnUse" x1="215.77264" y1="591.51831" x2="215.43558" y2="568.91895"><stop offset="0" stop-color="#67CFF2"/><stop offset="1" stop-color="#6CF7FB"/></linearGradient></defs><path fill="url(#gradient_13)" transform="scale(1.95312 1.95312)" d="M196.594 588.866C199.138 580.617 204.448 572.938 210.835 567.191C219.077 574.352 227.116 581.743 234.941 589.357C232.604 591.981 202.004 593.751 197.821 590.295C197.412 589.819 197.003 589.342 196.594 588.866Z"/><path fill="#212181" transform="scale(1.95312 1.95312)" d="M648.488 781.016C662.937 780.954 679.37 780.158 693.507 782.133C710.622 784.523 720.699 803.371 716.73 819.408C714.847 827.022 710.25 830.973 703.899 834.902C708.108 842.594 712.88 850.518 716.633 858.343L710.009 858.216C704.948 858.125 699.884 858.232 694.831 858.537C691.447 853.388 686.885 844.927 684.687 839.22C679.327 839.001 673.689 839.066 668.308 839.074L668.232 858.517C662.686 858.042 654.085 858.294 648.442 858.373C649.118 833.744 648.478 805.863 648.488 781.016ZM667.982 822.519C677.48 822.588 687.859 823.997 695.577 818.481C697.426 816.09 699.261 812.725 698.834 809.599C696.806 794.75 678.027 798.798 667.703 798.096C667.939 806.235 668.032 814.377 667.982 822.519Z"/><path fill="#212181" transform="scale(1.95312 1.95312)" d="M309.732 780.761L319.429 780.487C319.29 806.492 319.283 832.497 319.408 858.502C314.385 858.019 307.88 858.321 302.728 858.413C297.747 854.02 290.349 845.316 285.807 840.134C279.432 832.86 271.728 824.543 265.838 816.992C265.278 829.594 265.736 845.576 265.663 858.496C262.281 858.193 258.302 858.23 254.86 858.181C251.373 858.172 248.99 858.282 245.514 858.586C245.188 832.86 245.501 806.79 245.336 780.99L261.12 780.974L299.443 824.838C299.655 810.328 299.498 795.479 299.497 780.943L309.732 780.761Z"/><path fill="#212181" transform="scale(1.95312 1.95312)" d="M490.375 781.015C495.967 780.942 501.559 780.911 507.152 780.922C519.102 794.171 530.659 807.769 541.808 821.699C541.025 809.847 541.467 793.115 541.497 780.936L561.501 781.001C561.505 789.521 562.243 855.605 561.278 858.139L560.125 858.41C556.095 858.218 551.165 858.42 547.067 858.482C542.976 854.241 535.287 844.568 531.183 839.775C525.867 833.564 515.35 821.941 511.045 815.443C510.449 828.271 510.617 845.322 510.664 858.3L490.524 858.534L490.375 781.015Z"/><path fill="#212181" transform="scale(1.95312 1.95312)" d="M414.006 781.001C434.891 781.411 457.361 781.002 478.365 780.989C478.302 786.815 478.176 792.64 477.988 798.463C463.438 798.227 448.886 798.21 434.336 798.413C434.204 802.505 434.249 806.93 434.211 811.052L474.804 811.01L474.593 828.498L445.25 828.46L434.196 828.485C434.382 832.306 434.201 837.612 434.191 841.549C448.961 841.718 463.733 841.729 478.503 841.582C478.257 846.937 478.359 853.11 478.224 858.577C473.256 857.956 465.716 858.183 460.555 858.185C450.413 858.156 440.272 858.222 430.131 858.38C425.713 858.437 418.511 858.744 414.29 858.244C413.111 854.763 413.965 825.601 414.01 819.582L414.006 781.001Z"/><defs><linearGradient id="gradient_14" gradientUnits="userSpaceOnUse" x1="798.97198" y1="341.63022" x2="761.17737" y2="301.01538"><stop offset="0" stop-color="#5419F8"/><stop offset="1" stop-color="#9A51F8"/></linearGradient></defs><path fill="url(#gradient_14)" transform="scale(1.95312 1.95312)" d="M778.294 284.011L779.141 284.022C790.32 286.356 798.771 290.25 805.292 300.131C807.156 302.936 808.606 305.994 809.6 309.211C810.348 311.699 810.558 315.896 812.582 316.936L812.067 318.414C811.427 319.246 810.901 321.907 810.629 323.037C808.209 333.106 805.53 338.654 797.196 344.949C798.323 346.485 799.553 347.862 799.987 349.692C798.64 348.882 797.576 346.72 796.705 345.293C790.714 348.457 786.969 350.413 780.029 351.12C771.177 352.028 762.334 349.312 755.518 343.59C747.522 336.93 743.978 328.138 743.087 318L737.507 318.02L737.841 316.499C740.059 316.627 740.786 316.761 742.921 316.335L743.584 315.331C742.981 308.936 746.36 300.624 750.547 295.811C757.372 287.967 764.831 285.147 774.835 284.246L778.294 284.011Z"/><path fill="#8850E9" transform="scale(1.95312 1.95312)" d="M774.835 284.246C776.847 284.685 777.283 284.385 778.305 285.627C777.731 291.797 750.5 316.992 744.777 317.031L743.584 315.331C742.981 308.936 746.36 300.624 750.547 295.811C757.372 287.967 764.831 285.147 774.835 284.246Z"/><path fill="#212181" transform="scale(1.95312 1.95312)" d="M757.089 781.469C762.372 781.729 769.035 781.598 774.399 781.621C786.017 806.937 799.227 833.203 811.221 858.583C803.893 858.327 797.311 858.409 789.969 858.558C787.746 854.458 785.493 849.714 783.377 845.507C781.381 845.649 779.143 845.602 777.125 845.607C768.258 845.329 758.421 845.52 749.479 845.501C748.136 849.208 745.474 854.769 743.824 858.522C738.221 857.914 728.491 858.272 722.757 858.486C729.213 841.814 737.481 825.213 744.351 808.641C748.033 799.759 752.464 789.838 757.089 781.469ZM756.651 828.078L769.625 828.082L777.656 828.113C775.711 823.596 768.92 807.54 766.33 804.865L756.651 828.078Z"/><path fill="#52E4F3" transform="scale(1.95312 1.95312)" d="M394.808 539.791L396.908 539.978C396.702 550.534 396.597 561.092 396.593 571.65L394.963 571.79C391.012 571.459 383.471 571.682 379.232 571.691L350.833 571.723C336.866 571.719 312.756 570.883 299.52 571.905L299.485 539.986L359.853 539.969C370.528 539.984 384.429 540.398 394.808 539.791Z"/><path fill="#212181" transform="scale(1.95312 1.95312)" d="M394.808 539.791L396.908 539.978C396.702 550.534 396.597 561.092 396.593 571.65L394.963 571.79C394.189 565.149 394.441 546.524 394.808 539.791Z"/><path fill="#212181" transform="scale(1.95312 1.95312)" d="M326.06 780.707C333.34 781.003 340.815 780.855 348.118 780.796C349.727 787.21 353.845 797.944 356.197 804.445C359.586 813.812 363.391 825.083 367.353 834.064C368.986 829.238 371.85 822.754 373.76 817.832C378.428 805.468 383.332 793.194 388.47 781.017L408.634 781.016C406.159 786.059 402.998 794.461 400.754 799.878C392.906 819.594 385.13 838.653 377.616 858.542C371.661 857.924 362.055 858.068 356.09 858.482C352.483 850.422 326.304 785.82 326.06 780.707Z"/><path fill="#D763EA" transform="scale(1.95312 1.95312)" d="M766.935 482.631C753.907 476.511 747.135 461.937 750.858 448.032C754.581 434.128 767.729 424.888 782.072 426.096C796.416 427.304 807.834 438.613 809.179 452.944C810.176 463.568 805.403 473.912 796.672 480.047C787.942 486.183 776.593 487.169 766.935 482.631Z"/><path fill="#7D23D4" transform="scale(1.95312 1.95312)" d="M766.935 482.631C778.387 484.382 789.729 472.616 797.445 465.604C801.851 461.601 806.089 458.066 809.179 452.944C810.176 463.568 805.403 473.912 796.672 480.047C787.942 486.183 776.593 487.169 766.935 482.631Z"/><path fill="#212181" transform="scale(1.95312 1.95312)" d="M569.476 780.681C592.321 781.362 616.504 781.036 639.456 780.996L639.434 799.49L615.158 799.508L615.035 836.75L615.045 858.429C608.805 857.942 600.65 858.168 594.401 858.547C593.768 839.924 594.235 818.2 594.331 799.437C586.195 799.14 577.682 799.368 569.511 799.475L569.476 780.681Z"/><path fill="#212181" transform="scale(1.95312 1.95312)" d="M211.013 780.494C217.683 780.564 224.353 780.575 231.022 780.526L231.028 858.469C226.082 857.844 216.222 858.275 211.134 858.451L211.013 780.494Z"/><path fill="#4A71D6" transform="scale(1.95312 1.95312)" d="M396.908 539.978C405.745 539.993 415.276 540.177 424.05 539.785C425.015 543.62 424.464 565.903 424.507 571.522C419.676 571.482 411.784 571.191 407.338 572.196C406.248 573.309 406.615 572.645 406.396 574.35C406.212 574.114 406.027 573.878 405.843 573.641L404.835 576.193C404.391 575.13 404.353 574.348 404.162 573.202L404.07 572.052C402.558 571.338 398.551 571.638 396.593 571.65C396.597 561.092 396.702 550.534 396.908 539.978Z"/><path fill="#212181" transform="scale(1.95312 1.95312)" d="M527.041 242.695C528.291 242.934 528.318 243.032 529.447 243.667C532.668 248.105 531.512 267.93 531.466 274.287C537.275 274.113 560.226 272.676 563.097 277.114L562.582 278.168C556.458 281.997 539.042 280.394 531.416 280.127C531.52 286.983 532.305 302.189 530.335 308.315C526.973 309.059 525.692 307.435 525.363 304.334C524.559 296.765 524.991 288.146 525.066 280.544C519.548 280.082 498.27 281.575 495.387 278.491C495.012 276.832 494.918 277.597 495.598 276.107C500.8 272.164 518.482 273.897 525.336 274.07C524.903 267.82 524.188 247.25 527.041 242.695Z"/><path fill="#52E4F3" transform="scale(1.95312 1.95312)" d="M648.004 283.489C641.848 288.403 632.887 287.463 627.883 281.38C622.879 275.296 623.687 266.322 629.696 261.23C635.706 256.137 644.691 256.813 649.871 262.748C652.457 265.71 653.72 269.6 653.367 273.517C653.015 277.433 651.078 281.036 648.004 283.489Z"/><path fill="#15D1F4" transform="scale(1.95312 1.95312)" d="M649.871 262.748C652.457 265.71 653.72 269.6 653.367 273.517C653.015 277.433 651.078 281.036 648.004 283.489C649.981 275.567 648.772 270.096 649.871 262.748Z"/><path fill="#15D1F4" transform="scale(1.95312 1.95312)" d="M154.91 466.857C162.707 466.088 169.654 471.78 170.432 479.576C171.21 487.373 165.525 494.326 157.729 495.112C149.922 495.899 142.956 490.204 142.177 482.396C141.398 474.587 147.101 467.628 154.91 466.857Z"/><path fill="#212181" transform="scale(1.95312 1.95312)" d="M264.056 491.561C285.421 491.48 306.787 491.587 328.151 491.883C333.62 491.922 356.501 490.841 359.468 493.032C360.044 494.809 359.83 494.31 359.077 496.503C352.106 495.901 339.479 496.267 332.054 496.248L270.452 496.406C267.425 496.391 265.156 496.891 263.221 494.932C262.954 493.287 263.283 493.065 264.056 491.561Z"/><path fill="#52E4F3" transform="scale(1.95312 1.95312)" d="M871.268 386.683C854.052 378.624 868.957 358.818 880.87 368.79C883.013 371.737 884.757 375.106 884.29 378.892C884.027 381.163 882.836 383.223 880.999 384.585C877.955 386.877 874.973 386.924 871.268 386.683Z"/><path fill="#61A7D8" transform="scale(1.95312 1.95312)" d="M880.87 368.79C883.013 371.737 884.757 375.106 884.29 378.892C884.027 381.163 882.836 383.223 880.999 384.585C877.955 386.877 874.973 386.924 871.268 386.683C872.805 382.15 878.015 372.278 880.87 368.79Z"/><path fill="#212181" transform="scale(1.95312 1.95312)" d="M391.498 446.43C401.263 448.292 403.666 454.093 395.03 460.474C392.623 460.991 389.459 460.948 387.626 459.126C386.313 455.283 390.282 452.942 391.362 447.175L391.498 446.43Z"/><path fill="#7D23D4" transform="scale(1.95312 1.95312)" d="M731.38 318.107C728.061 323.239 722.659 327.709 719.898 318.488C719.043 315.63 721.032 310.621 724.756 311.255C728.021 311.812 729.995 314.18 732.162 316.527L737.841 316.499L737.507 318.02L731.38 318.107Z"/><path fill="#7D23D4" transform="scale(1.95312 1.95312)" d="M812.114 346.913C820.632 347.38 821.265 354.184 814.397 358.577C805.976 358.34 805.488 351.363 812.114 346.913Z"/><path fill="#7D23D4" transform="scale(1.95312 1.95312)" d="M741.989 275.525C745.093 275.206 747.871 277.453 748.211 280.554C748.55 283.655 746.323 286.449 743.224 286.81C740.095 287.174 737.268 284.921 736.925 281.789C736.582 278.658 738.855 275.846 741.989 275.525Z"/><path fill="#7D23D4" transform="scale(1.95312 1.95312)" d="M828.899 312.54C829.624 312.591 830.343 312.623 831.065 312.736C832.771 313.003 834.266 314.027 835.13 315.523C837.469 319.579 833.893 322.364 830.611 323.768C823.593 322.828 821.481 316.266 828.899 312.54Z"/><path fill="#7D23D4" transform="scale(1.95312 1.95312)" d="M776.641 362.715C779.615 362.024 782.589 363.86 783.306 366.827C784.022 369.794 782.212 372.784 779.251 373.527C776.254 374.278 773.219 372.441 772.494 369.437C771.769 366.433 773.631 363.414 776.641 362.715Z"/><path fill="#7D23D4" transform="scale(1.95312 1.95312)" d="M811.761 275.83C814.625 275.259 817.442 277.006 818.204 279.825C818.966 282.645 817.413 285.573 814.651 286.523C812.691 287.197 810.519 286.723 809.018 285.294C807.517 283.865 806.937 281.719 807.514 279.729C808.091 277.738 809.728 276.235 811.761 275.83Z"/><path fill="#212181" transform="scale(1.95312 1.95312)" d="M136.669 716.247C140.486 716.301 148.406 715.833 150.287 719.632C149.842 721.827 148.582 722.321 146.624 722.488C142.503 722.731 136.836 723.511 133.602 720.873C132.789 718.971 132.946 719.947 133.218 717.819C134.661 716.356 134.321 716.802 136.669 716.247Z"/><path fill="#7D23D4" transform="scale(1.95312 1.95312)" d="M740.705 347.673C743.465 346.821 746.406 348.303 747.362 351.029C748.319 353.756 746.948 356.751 744.26 357.809C742.428 358.53 740.349 358.192 738.84 356.928C737.331 355.664 736.634 353.676 737.023 351.747C737.411 349.817 738.824 348.254 740.705 347.673Z"/><path fill="#7D23D4" transform="scale(1.95312 1.95312)" d="M776.976 261.967C784.902 262.28 785.659 269.486 778.937 273.474C772.262 272.977 770.833 265.74 776.976 261.967Z"/><path fill="#F1ECF8" fill-opacity="0.11764706" transform="scale(1.95312 1.95312)" d="M831.399 460.258L832.043 460.879C832.829 462.963 833.001 484.741 832.349 486.677L831.912 486.728L831.451 486.025C831.947 484.833 831.326 463.784 831.399 460.258Z"/><path fill="#7D23D4" transform="scale(1.95312 1.95312)" d="M812.582 316.936C815.181 316.739 818.242 316.361 820.633 317.354C819.681 319.135 814.032 318.485 812.067 318.414L812.582 316.936Z"/><defs><linearGradient id="gradient_15" gradientUnits="userSpaceOnUse" x1="820.56201" y1="545.33582" x2="822.26013" y2="545.97241"><stop offset="0" stop-color="#EFEBF0" stop-opacity="0"/><stop offset="1" stop-color="#E9E1F8" stop-opacity="0.015686275"/></linearGradient></defs><path fill="url(#gradient_15)" transform="scale(1.95312 1.95312)" d="M822.187 541.312L822.822 542.144C822.79 544.656 822.408 548.39 820.605 550.229L820.09 549.512C820.703 547.91 821.71 543.214 822.187 541.312Z"/><path fill="#F1ECF8" fill-opacity="0.26666668" transform="scale(1.95312 1.95312)" d="M778.294 284.011C777.586 281.451 778.104 277.493 778.476 274.829L778.76 274.549C779.15 278.005 779.091 280.577 779.141 284.022L778.294 284.011Z"/><path fill="#F1ECF8" fill-opacity="0.64705884" transform="scale(1.95312 1.95312)" d="M757.978 275.814C760.45 276.945 762.841 280.034 764.233 282.312L763.805 282.422C762.569 281.719 759.113 277.208 757.978 275.814Z"/><path fill="#F1ECF8" fill-opacity="0.71764708" transform="scale(1.95312 1.95312)" d="M749.182 266.197L749.945 266.151C752.452 268.444 754.316 270.632 756.554 273.179C754.114 271.78 750.985 268.412 749.182 266.197Z"/><path fill="#F1ECF8" fill-opacity="0.011764706" transform="scale(1.95312 1.95312)" d="M824.607 411.201L824.791 411.37C825.431 413.741 826.289 414.788 825.529 416.545C824.984 416.448 825.341 416.548 824.553 416.006C824.119 413.667 824.142 413.571 824.607 411.201Z"/></svg>